<?xml version="1.0" encoding="UTF-8"?>
<svg id="Layer_2" data-name="Layer 2" xmlns="http://www.w3.org/2000/svg" viewBox="0 0 200.14 28.35">
  <defs>
    <style>
      .cls-1 {
        fill: #1446aa;
      }
    </style>
  </defs>
  <g id="Go_European" data-name="Go European">
    <g>
      <path class="cls-1" d="M22.23,12.39c0,5.93-4.28,10.15-10.65,10.15C4.81,22.54,0,17.51,0,11.27S4.87,0,11.39,0c4.13,0,7.64,2.08,9.47,5.15l-3.07,1.77c-1.12-2.02-3.54-3.45-6.4-3.45-4.59,0-7.82,3.38-7.82,7.82s3.17,7.76,8.04,7.76c3.94,0,6.36-2.05,7.02-4.97h-7.27v-3.2h10.87v1.49Z"/>
      <path class="cls-1" d="M32.35,6.21c-4.51,0-8.16,3.66-8.16,8.17s3.65,8.17,8.16,8.17,8.17-3.66,8.17-8.17-3.66-8.17-8.17-8.17ZM32.35,19.29c-2.7,0-4.9-2.21-4.9-4.91s2.2-4.91,4.9-4.91,4.91,2.2,4.91,4.91-2.2,4.91-4.91,4.91Z"/>
      <path class="cls-1" d="M64.77,18.72v3.42h-13.19V.4h13.04v3.42h-9.47v5.65h8.69v3.38h-8.69v5.87h9.62Z"/>
      <path class="cls-1" d="M81.45,6.61v15.52h-3.35v-1.99c-1.02,1.61-2.7,2.39-4.81,2.39-3.48,0-5.96-2.36-5.96-6.4V6.61h3.35v9.19c0,2.36,1.37,3.6,3.48,3.6s3.94-1.3,3.94-4.47V6.61h3.35Z"/>
      <path class="cls-1" d="M93.21,6.33v3.63c-2.2-.16-4.78.87-4.78,4.35v7.82h-3.35V6.61h3.35v2.61c.93-2.11,2.83-2.89,4.78-2.89Z"/>
      <path class="cls-1" d="M146.18,14.38c0,4.63-3.51,8.17-7.73,8.17-2.42,0-4.25-.99-5.43-2.61v8.41h-3.35V6.61h3.35v2.24c1.18-1.65,3.01-2.64,5.43-2.64,4.22,0,7.73,3.57,7.73,8.17ZM142.83,14.38c0-2.85-2.11-4.91-4.91-4.91s-4.91,2.06-4.91,4.91,2.11,4.91,4.91,4.91,4.91-2.06,4.91-4.91Z"/>
      <path class="cls-1" d="M156.53,19.47c1.86,0,3.26-.84,4.01-1.92l2.76,1.61c-1.43,2.11-3.76,3.38-6.8,3.38-5.12,0-8.44-3.51-8.44-8.17s3.32-8.17,8.2-8.17,7.79,3.73,7.79,8.2c0,.47-.06.96-.12,1.4h-12.36c.53,2.42,2.48,3.66,4.97,3.66ZM160.66,13.07c-.47-2.67-2.42-3.82-4.44-3.82-2.51,0-4.22,1.49-4.69,3.82h9.13Z"/>
      <path class="cls-1" d="M182.37,6.61v15.52h-3.35v-2.24c-1.18,1.65-3.01,2.64-5.43,2.64-4.22,0-7.73-3.57-7.73-8.17s3.51-8.17,7.73-8.17c2.42,0,4.25.99,5.43,2.61v-2.2h3.35ZM179.02,14.38c0-2.85-2.11-4.91-4.91-4.91s-4.91,2.06-4.91,4.91,2.11,4.91,4.91,4.91,4.91-2.06,4.91-4.91Z"/>
      <path class="cls-1" d="M200.14,12.61v9.53h-3.35v-9.19c0-2.36-1.37-3.6-3.48-3.6s-3.94,1.3-3.94,4.47v8.32h-3.35V6.61h3.35v1.99c1.03-1.61,2.7-2.39,4.81-2.39,3.48,0,5.96,2.36,5.96,6.4Z"/>
      <path class="cls-1" d="M118.75,6.21h-16.33c-4.51,0-8.17,3.66-8.17,8.17s3.66,8.17,8.17,8.17h16.33c4.51,0,8.17-3.66,8.17-8.17s-3.66-8.17-8.17-8.17ZM118.75,19.29c-2.7,0-4.91-2.21-4.91-4.91s2.21-4.91,4.91-4.91,4.91,2.2,4.91,4.91-2.2,4.91-4.91,4.91Z"/>
    </g>
  </g>
</svg>